<svg width="492" height="332" viewBox="0 0 492 332" fill="none" xmlns="http://www.w3.org/2000/svg">
<path d="M484.128 24.478L468.012 8.36198C462.948 3.29398 456.196 0.505981 448.988 0.505981C441.78 0.505981 435.024 3.29398 429.96 8.36198L203.508 234.81L62.024 93.322C56.96 88.262 50.204 85.47 42.996 85.47C35.792 85.47 29.04 88.262 23.972 93.322L7.852 109.434C2.784 114.51 0 121.27 0 128.47C0 135.674 2.784 142.43 7.852 147.498L167.596 307.234C167.808 307.534 168.032 307.814 168.292 308.07L184.412 323.922C189.476 328.97 196.232 331.494 203.496 331.494H203.58C210.792 331.494 217.548 328.97 222.604 323.922L238.728 307.93C238.988 307.674 239.208 307.462 239.34 307.246L484.124 62.486C494.624 52.01 494.624 34.966 484.128 24.478Z" fill="white"/>
</svg>
